# xmcd
#
# Track frame offsets:
#	150
#	17575
#	36972
#	55306
#	77284
#	95455
#	112969
#	135309
#	154211
#	172475
#	189428
#	202812
#
# Disc length: 2915 seconds
#
# Revision: 0
# Processed by: cddbd v1.5.1PL0 Copyright (c) Steve Scherf et al.
# Submitted via: dBpowerAMP V4.0
#
DISCID=920b610c
DTITLE=Kim Carnes - Chasin' Wild Trains
DYEAR=2004
DGENRE=Blues
TTITLE0=One Beat At A Time
TTITLE1=Just To See You Smile
TTITLE2=Where Is The Boy?
TTITLE3=Goodnight Angel
TTITLE4=Lucid Dreams
TTITLE5=All About Time
TTITLE6=Runaway
TTITLE7=You Made My Skin Burn
TTITLE8=Still Warmed By The Thrill
TTITLE9=If I Was An Angel
TTITLE10=Too Far Gone
TTITLE11=Stepped Right In It
EXTD=
EXTT0=
EXTT1=
EXTT2=
EXTT3=
EXTT4=
EXTT5=
EXTT6=
EXTT7=
EXTT8=
EXTT9=
EXTT10=
EXTT11=
PLAYORDER=
